<svg version="1.2" baseProfile="tiny-ps" xmlns="http://www.w3.org/2000/svg" viewBox="0 0 512 512" width="512" height="512">
	<title>367376-svg</title>
	<style>
		tspan { white-space:pre }
		.shp0 { fill: #000000 } 
	</style>
	<path id="Layer" class="shp0" d="M348.34 295.6C343.34 290.5 335.04 290.5 329.94 295.5L269.04 356.3L269.04 124.9C269.04 117.8 263.24 112 256.04 112C248.84 112 243.04 117.8 243.04 124.9L243.04 356.2L182.14 295.4C177.04 290.4 168.84 290.5 163.74 295.5C158.74 300.6 158.74 308.7 163.84 313.8L246.84 396.2C248.04 397.3 249.34 398.2 250.94 398.9C252.54 399.6 254.24 399.9 255.94 399.9C259.34 399.9 262.54 398.6 265.04 396.2L348.04 313.8C353.24 308.9 353.34 300.7 348.34 295.6L348.34 295.6Z" />
</svg>