<svg version="1.2" baseProfile="tiny-ps" xmlns="http://www.w3.org/2000/svg" viewBox="0 0 512 512" width="512" height="512">
	<title>367376-svg</title>
	<style>
		tspan { white-space:pre }
		.shp0 { fill: #000000 } 
	</style>
	<path id="Layer" class="shp0" d="M163.66 216.4C168.66 221.5 176.96 221.5 182.06 216.5L242.96 155.7L242.96 387.1C242.96 394.2 248.76 400 255.96 400C263.16 400 268.96 394.2 268.96 387.1L268.96 155.8L329.86 216.6C334.96 221.6 343.16 221.5 348.26 216.5C353.26 211.4 353.26 203.3 348.16 198.2L265.16 115.8C263.96 114.7 262.66 113.8 261.06 113.1C259.46 112.4 257.76 112.1 256.06 112.1C252.66 112.1 249.46 113.4 246.96 115.8L163.96 198.2C158.76 203.1 158.66 211.3 163.66 216.4L163.66 216.4Z" />
</svg>