<?xml version="1.0" standalone="no"?>
<!DOCTYPE svg PUBLIC "-//W3C//DTD SVG 20010904//EN"
 "http://www.w3.org/TR/2001/REC-SVG-20010904/DTD/svg10.dtd">
<svg version="1.0" xmlns="http://www.w3.org/2000/svg"
 width="1707.000000pt" height="1707.000000pt" viewBox="0 0 1707.000000 1707.000000"
 preserveAspectRatio="xMidYMid meet">
<metadata>
Created by potrace 1.14, written by Peter Selinger 2001-2017
</metadata>
<g transform="translate(0.000000,1707.000000) scale(0.100000,-0.100000)"
fill="#000000" stroke="none">
<path d="M3230 8534 l0 -8536 178 6 c97 4 193 8 212 11 19 2 73 6 120 10 47 3
108 8 135 10 28 3 75 7 105 9 66 5 175 15 250 22 30 3 73 7 95 9 64 6 167 15
205 20 19 2 67 7 105 10 39 3 86 8 105 10 38 4 118 12 205 20 30 3 79 7 108
10 28 3 75 7 102 10 57 5 154 15 205 20 19 3 64 7 100 10 36 3 81 7 100 10 19
2 63 7 98 10 34 3 90 8 123 11 34 3 78 7 98 9 20 2 59 5 86 8 28 4 84 9 125
13 41 3 82 8 90 9 8 2 58 6 110 10 52 3 106 8 120 10 14 2 54 7 90 10 36 3 81
8 100 10 19 2 67 7 105 10 39 3 88 8 110 10 22 2 65 6 95 9 30 3 104 10 165
16 60 6 135 13 165 16 30 2 73 6 95 9 22 2 72 7 110 10 39 4 88 9 110 11 22 2
67 6 100 9 33 3 76 7 95 10 19 2 64 7 100 10 36 4 74 7 85 8 11 1 22 7 25 14
3 7 5 1231 5 2721 l-1 2709 2173 -1 2173 -1 0 2102 0 2101 -2165 0 c-1190 0
-2168 3 -2173 6 -4 2 -8 650 -7 1438 l0 1433 2933 3 2932 2 0 163 c0 118 -4
175 -16 212 -8 28 -17 57 -19 65 -4 20 -184 647 -196 685 -5 17 -32 111 -60
210 -27 99 -54 194 -60 210 -15 49 -160 555 -175 615 -8 30 -19 69 -25 85 -11
36 -125 429 -144 500 -19 73 -123 435 -134 470 -6 17 -42 143 -81 280 -38 138
-79 279 -90 315 -10 36 -34 117 -51 180 -18 63 -34 117 -36 119 -2 2 -2143 6
-4758 7 l-4755 4 0 -8536z"/>
</g>
</svg>
